<?xml version="1.0" encoding="UTF-8"?>
<svg width="16px" height="16px" viewBox="0 0 16 16" version="1.1" xmlns="http://www.w3.org/2000/svg" xmlns:xlink="http://www.w3.org/1999/xlink">
    <title>favicon</title>
    <defs>
        <path d="M5.01545711,15.2904571 L5.01545711,14.5224571 L4.83945711,14.5224571 C4.27412377,14.5224571 3.99145711,14.1331238 3.99145711,13.3544571 L3.99145711,13.3544571 L3.99145711,10.2504571 C3.99145711,9.50379044 3.84479044,8.93312377 3.55145711,8.53845711 C3.25812377,8.14379044 2.87679044,7.93579044 2.40745711,7.91445711 C2.87679044,7.89312377 3.25812377,7.68512377 3.55145711,7.29045711 C3.84479044,6.89579044 3.99145711,6.33045711 3.99145711,5.59445711 L3.99145711,5.59445711 L3.99145711,2.63445711 C3.99145711,1.85579044 4.27412377,1.46645711 4.83945711,1.46645711 L4.83945711,1.46645711 L5.01545711,1.46645711 L5.01545711,0.698457108 L4.85545711,0.698457108 C4.09812377,0.698457108 3.55945711,0.861123775 3.23945711,1.18645711 C2.91945711,1.51179044 2.75945711,2.01579044 2.75945711,2.69845711 L2.75945711,2.69845711 L2.75945711,5.97845711 C2.75945711,6.98112377 2.35945711,7.48245711 1.55945711,7.48245711 L1.55945711,7.48245711 L1.22345711,7.48245711 L1.22345711,8.34645711 L1.55945711,8.34645711 C2.35945711,8.34645711 2.75945711,8.84779044 2.75945711,9.85045711 L2.75945711,9.85045711 L2.75945711,13.2744571 C2.75945711,13.9677904 2.91945711,14.4771238 3.23945711,14.8024571 C3.55945711,15.1277904 4.09812377,15.2904571 4.85545711,15.2904571 L4.85545711,15.2904571 L5.01545711,15.2904571 Z" id="path-1"></path>
        <path d="M9.84345711,13.5364571 C10.3661238,13.5364571 10.8621238,13.4431238 11.3314571,13.2564571 C11.8007904,13.0697904 12.2514571,12.7711238 12.6834571,12.3604571 C13.1154571,11.9497904 13.4594571,11.3497904 13.7154571,10.5604571 C13.9714571,9.77112377 14.0994571,8.83779044 14.0994571,7.76045711 C14.0994571,6.00045711 13.7314571,4.67512377 12.9954571,3.78445711 C12.2594571,2.89379044 11.2674571,2.44845711 10.0194571,2.44845711 C8.77145711,2.44845711 7.74745711,2.92845711 6.94745711,3.88845711 C6.15812377,4.84845711 5.76345711,6.24045711 5.76345711,8.06445711 C5.76345711,9.94179044 6.12612377,11.3231238 6.85145711,12.2084571 C7.57679044,13.0937904 8.57412377,13.5364571 9.84345711,13.5364571 Z M9.98745711,12.3844571 C9.09145711,12.3844571 8.39545711,12.0004571 7.89945711,11.2324571 C7.40345711,10.4644571 7.15545711,9.30712377 7.15545711,7.76045711 C7.15545711,6.41645711 7.40345711,5.38445711 7.89945711,4.66445711 C8.39545711,3.94445711 9.03812377,3.58445711 9.82745711,3.58445711 C10.7341238,3.58445711 11.4407904,3.96312377 11.9474571,4.72045711 C12.4541238,5.47779044 12.7074571,6.59245711 12.7074571,8.06445711 C12.7074571,9.50445711 12.4621238,10.5844571 11.9714571,11.3044571 C11.4807904,12.0244571 10.8194571,12.3844571 9.98745711,12.3844571 Z" id="path-2"></path>
    </defs>
    <g id="favicon" stroke="none" stroke-width="1" fill="none" fill-rule="evenodd">
        <g id="Group" transform="translate(0.001543, 0.001543)">
            <path d="M2.61420071,0.0122675084 L2.98969303,0 L2.98969303,0 L13.0072212,0 L13.0072212,0 L13.3827135,0.0122675084 C13.898009,0.0397748678 14.2089783,0.108032781 14.469757,0.213978332 L14.6378653,0.290158441 C14.6652079,0.303774481 14.6923537,0.317847397 14.7195142,0.332372988 C15.1269216,0.550256854 15.4466574,0.869992571 15.6645412,1.27739998 L15.7067558,1.3590489 L15.7067558,1.3590489 L15.7829359,1.52715719 C15.8888814,1.7879359 15.9571393,2.09890524 15.9846467,2.61420071 L15.9969142,2.98969303 C15.9979414,3.057884 15.9984571,3.12902038 15.9984571,3.20331361 L15.9984571,12.7936006 L15.9969142,13.0072212 L15.9969142,13.0072212 L15.9846467,13.3827135 C15.9571393,13.898009 15.8888814,14.2089783 15.7829359,14.469757 L15.7067558,14.6378653 C15.6931397,14.6652079 15.6790668,14.6923537 15.6645412,14.7195142 C15.4466574,15.1269216 15.1269216,15.4466574 14.7195142,15.6645412 L14.6378653,15.7067558 L14.6378653,15.7067558 L14.469757,15.7829359 C14.2089783,15.8888814 13.898009,15.9571393 13.3827135,15.9846467 L13.0072212,15.9969142 C12.9390302,15.9979414 12.8678938,15.9984571 12.7936006,15.9984571 L3.20331361,15.9984571 L2.98969303,15.9969142 L2.98969303,15.9969142 L2.61420071,15.9846467 C2.09890524,15.9571393 1.7879359,15.8888814 1.52715719,15.7829359 L1.3590489,15.7067558 C1.3317063,15.6931397 1.30456047,15.6790668 1.27739998,15.6645412 C0.869992571,15.4466574 0.550256854,15.1269216 0.332372988,14.7195142 L0.290158441,14.6378653 L0.290158441,14.6378653 L0.213978332,14.469757 C0.108032781,14.2089783 0.0397748678,13.898009 0.0122675084,13.3827135 L0,13.0072212 L0,13.0072212 L0,2.98969303 L0,2.98969303 L0.0122675084,2.61420071 C0.0397748678,2.09890524 0.108032781,1.7879359 0.213978332,1.52715719 L0.290158441,1.3590489 C0.303774481,1.3317063 0.317847397,1.30456047 0.332372988,1.27739998 C0.550256854,0.869992571 0.869992571,0.550256854 1.27739998,0.332372988 L1.3590489,0.290158441 L1.3590489,0.290158441 L1.52715719,0.213978332 C1.7879359,0.108032781 2.09890524,0.0397748678 2.61420071,0.0122675084 Z" id="Rectangle" fill="#FFFFFF"></path>
            <g id="{">
                <use fill="#656664" xlink:href="#path-1"></use>
            </g>
            <g id="O">
                <use fill="#4783A3" xlink:href="#path-2"></use>
            </g>
        </g>
    </g>
</svg>