<?xml version="1.0" encoding="UTF-8"?>
<svg width="16px" height="16px" viewBox="0 0 16 16" version="1.1" xmlns="http://www.w3.org/2000/svg" xmlns:xlink="http://www.w3.org/1999/xlink">
    <title>favicon</title>
    <defs>
        <path d="M5.01545711,15.2904571 L5.01545711,14.5224571 L4.83945711,14.5224571 C4.27412377,14.5224571 3.99145711,14.1331238 3.99145711,13.3544571 L3.99145711,13.3544571 L3.99145711,10.2504571 C3.99145711,9.50379044 3.84479044,8.93312377 3.55145711,8.53845711 C3.25812377,8.14379044 2.87679044,7.93579044 2.40745711,7.91445711 C2.87679044,7.89312377 3.25812377,7.68512377 3.55145711,7.29045711 C3.84479044,6.89579044 3.99145711,6.33045711 3.99145711,5.59445711 L3.99145711,5.59445711 L3.99145711,2.63445711 C3.99145711,1.85579044 4.27412377,1.46645711 4.83945711,1.46645711 L4.83945711,1.46645711 L5.01545711,1.46645711 L5.01545711,0.698457108 L4.85545711,0.698457108 C4.09812377,0.698457108 3.55945711,0.861123775 3.23945711,1.18645711 C2.91945711,1.51179044 2.75945711,2.01579044 2.75945711,2.69845711 L2.75945711,2.69845711 L2.75945711,5.97845711 C2.75945711,6.98112377 2.35945711,7.48245711 1.55945711,7.48245711 L1.55945711,7.48245711 L1.22345711,7.48245711 L1.22345711,8.34645711 L1.55945711,8.34645711 C2.35945711,8.34645711 2.75945711,8.84779044 2.75945711,9.85045711 L2.75945711,9.85045711 L2.75945711,13.2744571 C2.75945711,13.9677904 2.91945711,14.4771238 3.23945711,14.8024571 C3.55945711,15.1277904 4.09812377,15.2904571 4.85545711,15.2904571 L4.85545711,15.2904571 L5.01545711,15.2904571 Z" id="path-1"></path>
        <path d="M9.84345711,13.5364571 C10.3661238,13.5364571 10.8621238,13.4431238 11.3314571,13.2564571 C11.8007904,13.0697904 12.2514571,12.7711238 12.6834571,12.3604571 C13.1154571,11.9497904 13.4594571,11.3497904 13.7154571,10.5604571 C13.9714571,9.77112377 14.0994571,8.83779044 14.0994571,7.76045711 C14.0994571,6.00045711 13.7314571,4.67512377 12.9954571,3.78445711 C12.2594571,2.89379044 11.2674571,2.44845711 10.0194571,2.44845711 C8.77145711,2.44845711 7.74745711,2.92845711 6.94745711,3.88845711 C6.15812377,4.84845711 5.76345711,6.24045711 5.76345711,8.06445711 C5.76345711,9.94179044 6.12612377,11.3231238 6.85145711,12.2084571 C7.57679044,13.0937904 8.57412377,13.5364571 9.84345711,13.5364571 Z M9.98745711,12.3844571 C9.09145711,12.3844571 8.39545711,12.0004571 7.89945711,11.2324571 C7.40345711,10.4644571 7.15545711,9.30712377 7.15545711,7.76045711 C7.15545711,6.41645711 7.40345711,5.38445711 7.89945711,4.66445711 C8.39545711,3.94445711 9.03812377,3.58445711 9.82745711,3.58445711 C10.7341238,3.58445711 11.4407904,3.96312377 11.9474571,4.72045711 C12.4541238,5.47779044 12.7074571,6.59245711 12.7074571,8.06445711 C12.7074571,9.50445711 12.4621238,10.5844571 11.9714571,11.3044571 C11.4807904,12.0244571 10.8194571,12.3844571 9.98745711,12.3844571 Z" id="path-2"></path>
    </defs>
    <g id="favicon" stroke="none" stroke-width="1" fill="none" fill-rule="evenodd">
        <g id="Group" transform="translate(0.001543, 0.001543)">
            <g id="{">
                <use fill="#000000" xlink:href="#path-1"></use>
            </g>
            <g id="O">
                <use fill="#000000" xlink:href="#path-2"></use>
            </g>
        </g>
    </g>
</svg>